<?xml version="1.0" standalone="no"?>
<!DOCTYPE svg PUBLIC "-//W3C//DTD SVG 20010904//EN"
 "http://www.w3.org/TR/2001/REC-SVG-20010904/DTD/svg10.dtd">
<svg version="1.0" xmlns="http://www.w3.org/2000/svg"
 width="512.000000pt" height="512.000000pt" viewBox="0 0 512.000000 512.000000"
 preserveAspectRatio="xMidYMid meet">
<metadata>
Created by potrace 1.11, written by Peter Selinger 2001-2013
</metadata>
<g transform="translate(0.000000,512.000000) scale(0.100000,-0.100000)"
fill="#000000" stroke="none">
<path d="M1069 4916 c-2 -2 -25 -7 -51 -10 -71 -10 -224 -62 -298 -102 -264
-144 -447 -395 -504 -690 -13 -69 -15 -271 -13 -1594 1 -833 6 -1526 10 -1540
5 -14 9 -32 9 -40 0 -8 6 -21 12 -29 9 -12 8 -13 -4 -6 -11 7 -10 2 4 -19 11
-18 13 -26 5 -21 -8 3 -6 0 4 -8 20 -16 23 -31 5 -22 -7 4 -6 1 3 -7 9 -7 14
-19 11 -27 -3 -8 0 -11 7 -7 6 4 10 4 9 -1 -1 -4 3 -18 10 -31 7 -12 10 -22 6
-22 -4 0 0 -8 9 -18 10 -10 14 -22 10 -26 -8 -8 -12 -45 -4 -44 24 2 42 -4 40
-14 -3 -27 1 -48 11 -48 12 0 9 22 -5 33 -6 5 -4 7 5 4 8 -2 15 -9 15 -15 0
-6 9 -22 20 -34 11 -13 20 -27 20 -33 0 -5 5 -10 12 -10 15 0 54 -50 46 -59
-3 -3 -1 -7 5 -7 7 -1 18 -2 25 -3 6 -1 11 -9 9 -19 -2 -9 2 -16 9 -15 6 2 13
-5 14 -15 2 -9 0 -15 -4 -13 -4 3 -13 0 -21 -6 -13 -8 -12 -9 1 -5 9 3 24 -4
33 -15 10 -11 20 -17 24 -13 3 3 0 10 -7 14 -7 5 -9 11 -5 13 5 3 4 3 -3 2 -7
-2 -10 3 -7 11 5 11 10 12 25 2 11 -7 15 -13 9 -15 -6 -2 -8 -8 -5 -12 3 -5
12 -7 20 -4 9 4 13 -1 12 -14 0 -12 -5 -18 -9 -16 -5 3 -5 11 -1 17 4 7 0 6
-10 -2 -18 -14 -23 -26 -8 -17 5 4 11 1 13 -5 6 -17 37 1 32 19 -5 14 -4 14 6
-1 6 -9 16 -14 22 -11 7 5 8 2 3 -6 -6 -10 -4 -12 9 -7 11 5 15 3 10 -5 -5 -8
-2 -9 9 -5 24 9 21 0 -4 -14 -17 -9 -20 -8 -14 2 5 8 4 10 -3 5 -7 -4 -12 -3
-12 3 0 11 -26 9 -37 -4 -4 -4 -2 -5 5 -1 6 4 12 2 12 -4 0 -6 3 -9 7 -7 11 7
33 -19 25 -29 -4 -4 -1 -4 6 0 7 4 9 12 6 18 -4 6 -1 9 7 6 8 -3 19 2 25 10 9
12 13 12 19 2 5 -9 4 -11 -3 -6 -7 4 -12 3 -12 -2 0 -17 13 -21 32 -11 17 9
18 8 9 -9 -7 -13 -7 -22 2 -31 9 -10 8 -15 -6 -26 -17 -12 -16 -13 10 -13 50
1 64 -2 58 -12 -3 -6 -1 -10 4 -10 6 0 11 4 11 8 0 4 9 8 21 9 20 2 21 1 3
-18 -16 -18 -16 -19 -1 -13 9 3 17 10 17 15 0 5 5 9 11 9 5 0 8 -4 5 -9 -7
-11 32 -47 41 -38 3 4 1 7 -6 7 -7 0 -9 5 -6 11 5 7 15 5 31 -6 17 -11 24 -12
24 -3 0 6 6 4 13 -7 11 -14 16 -15 22 -5 5 9 4 11 -3 6 -7 -4 -12 -2 -12 3 0
12 23 15 33 4 4 -3 2 -12 -4 -20 -9 -9 -8 -13 0 -13 6 0 11 4 11 10 0 12 22 9
32 -5 5 -6 8 -6 8 2 0 6 7 10 15 9 23 -3 29 -14 16 -30 -8 -10 -9 -16 -1 -21
6 -4 10 -3 9 2 -4 15 13 43 22 37 5 -3 6 -10 3 -16 -4 -7 -2 -8 4 -4 7 4 12 2
12 -3 0 -6 5 -11 12 -11 6 0 4 7 -5 18 -10 10 -14 22 -10 25 9 10 25 9 19 -1
-8 -13 27 -11 43 2 12 9 14 8 9 -4 -4 -11 1 -15 16 -15 12 1 26 4 32 6 15 9
39 4 37 -7 -1 -6 5 -11 13 -11 17 0 19 13 2 20 -10 4 -10 6 0 6 6 1 12 6 12
12 0 5 -5 7 -10 4 -6 -4 -9 -1 -8 6 2 6 -3 14 -10 16 -11 4 -12 1 -4 -14 9
-15 8 -20 -3 -20 -8 0 -12 4 -9 9 12 18 -8 29 -23 11 -8 -10 -11 -12 -7 -4 5
9 3 12 -5 7 -6 -4 -9 -12 -6 -17 4 -5 2 -9 -4 -9 -5 0 -12 4 -16 9 -3 5 -17 8
-30 5 -14 -2 -25 0 -25 6 0 7 -5 8 -13 3 -18 -11 -37 -12 -37 -2 0 9 15 13 34
10 5 -1 6 4 3 12 -3 7 1 14 8 14 8 0 11 -7 7 -16 -5 -14 -4 -14 12 -2 18 15
79 23 70 10 -2 -4 5 -7 16 -6 11 1 20 6 20 11 0 6 5 5 12 -2 7 -7 17 -8 29 -1
15 7 17 6 13 -5 -4 -11 1 -14 20 -12 22 3 24 1 14 -11 -8 -10 -13 -11 -18 -3
-5 8 -9 6 -14 -5 -9 -24 -8 -26 12 -23 9 2 16 -3 15 -9 -2 -7 2 -13 7 -13 6 0
10 7 10 15 0 8 5 15 11 15 5 0 7 -5 3 -11 -4 -8 -1 -8 12 -2 11 5 26 9 34 8 8
-1 23 3 33 7 12 6 19 4 23 -7 6 -14 8 -14 19 1 11 16 13 16 23 -2 6 -10 12
-14 12 -8 0 12 28 12 47 1 6 -4 14 -3 17 2 7 11 25 9 45 -3 10 -6 12 -5 7 2
-4 7 -3 12 3 12 5 0 9 9 8 20 -1 11 -5 20 -10 20 -5 0 -6 -7 -3 -16 6 -15 4
-15 -11 -3 -9 8 -14 9 -10 2 5 -7 1 -10 -10 -8 -10 1 -22 0 -28 -3 -20 -12
-63 -8 -58 5 4 11 8 11 20 1 12 -10 14 -9 13 3 -5 30 1 35 34 35 19 0 32 -5
29 -9 -3 -5 4 -6 15 -3 11 4 23 2 27 -4 3 -5 11 -10 17 -10 6 0 5 7 -3 18 -13
15 -12 16 4 3 25 -20 44 -55 25 -48 -7 2 -12 10 -10 16 4 18 -16 3 -29 -20 -9
-19 -9 -19 10 -10 16 9 23 7 40 -15 12 -15 21 -22 21 -16 0 6 -4 14 -10 17
-16 10 -11 23 8 20 9 -1 16 -7 15 -12 -1 -5 5 -10 13 -10 17 0 19 13 2 20 -10
4 -10 6 0 6 17 1 15 18 -3 18 -8 0 -11 -5 -8 -10 3 -6 1 -7 -5 -3 -21 13 -13
27 13 22 30 -6 32 0 6 14 -26 13 -51 3 -44 -18 8 -21 -1 -14 -15 13 -9 19 -7
20 33 20 24 0 42 -2 40 -6 -2 -3 9 -6 25 -6 16 0 27 3 25 6 -2 3 18 6 45 6 38
0 47 -2 42 -15 -5 -13 -3 -13 11 -2 9 8 21 11 27 7 5 -3 10 -1 10 6 0 7 7 4
15 -7 8 -10 14 -23 15 -29 0 -5 -5 -3 -10 5 -8 13 -10 13 -10 1 0 -11 -4 -10
-13 4 -14 18 -43 13 -32 -6 4 -5 1 -9 -4 -9 -6 0 -11 5 -11 12 0 6 -7 3 -16
-8 -15 -18 -15 -18 -5 3 6 12 11 24 11 26 0 9 -60 -1 -74 -12 -11 -9 -15 -9
-19 1 -5 16 -12 10 -22 -20 -5 -19 -3 -23 12 -20 10 2 17 -2 16 -10 -2 -6 2
-12 7 -12 6 0 10 7 10 15 0 8 5 15 11 15 5 0 7 -5 3 -11 -4 -8 -1 -8 12 -2 11
5 26 9 34 8 8 -1 23 3 33 7 12 6 19 4 23 -7 6 -14 8 -14 19 1 11 16 13 16 23
-2 6 -10 12 -14 12 -7 0 7 6 10 14 7 8 -3 17 -1 21 5 3 6 11 11 17 11 6 0 3
-9 -6 -19 -14 -15 -15 -21 -4 -27 7 -4 10 -4 6 1 -11 12 11 35 28 28 7 -3 12
-8 9 -12 -2 -4 2 -8 10 -8 11 0 12 4 3 14 -8 10 -6 13 10 10 11 -2 28 -9 39
-17 17 -14 17 -13 -1 8 -23 26 -11 29 17 4 11 -9 17 -12 14 -6 -4 7 0 17 8 24
13 11 14 10 9 -4 -5 -13 -2 -17 12 -14 11 2 18 -2 17 -8 -1 -6 5 -11 13 -11
17 0 19 13 2 20 -10 4 -10 6 0 6 6 1 12 6 12 12 0 5 -5 7 -10 4 -6 -4 -9 -1
-8 6 2 6 -3 14 -10 16 -11 4 -12 1 -4 -14 9 -15 8 -20 -3 -20 -8 0 -12 4 -9 9
3 4 2 13 -2 19 -4 8 -9 7 -15 -2 -4 -7 -26 -14 -48 -14 -22 0 -38 2 -36 5 2 4
-2 7 -9 7 -8 0 -12 -6 -9 -14 3 -7 0 -13 -6 -13 -6 0 -10 3 -10 7 3 19 -2 23
-20 14 -14 -8 -20 -7 -24 3 -6 16 3 30 23 34 10 1 9 -2 -4 -13 -26 -20 -2 -19
30 1 23 16 24 16 17 -2 -6 -17 -5 -17 11 -5 18 15 79 23 70 10 -2 -4 5 -7 16
-6 11 1 20 6 20 11 0 6 5 5 12 -2 7 -7 17 -8 29 -1 15 7 17 6 13 -5 -4 -11 1
-14 20 -12 22 3 24 1 14 -11 -8 -10 -13 -11 -18 -3 -5 8 -9 6 -14 -5 -9 -24
-8 -26 12 -23 9 2 16 -3 15 -9 -2 -7 2 -13 7 -13 6 0 10 7 10 15 0 8 5 15 11
15 5 0 7 -5 3 -11 -4 -8 -1 -8 12 -2 11 5 26 9 34 8 8 -1 23 3 33 7 12 6 19 4
23 -7 6 -14 8 -14 19 1 11 16 13 16 23 -2 6 -10 12 -14 12 -8 0 12 28 12 47 1
6 -4 14 -3 17 2 7 11 25 9 45 -3 10 -6 12 -5 7 2 -4 7 -3 12 3 12 5 0 9 9 8
20 -1 11 -5 20 -10 20 -5 0 -6 -7 -3 -16 6 -15 4 -15 -11 -3 -9 8 -14 9 -10 2
5 -7 1 -10 -10 -8 -10 1 -22 0 -28 -3 -20 -12 -63 -8 -58 5 4 11 8 11 20 1 12
-10 14 -9 13 3 -5 30 1 35 34 35 19 0 32 -5 29 -9 -3 -5 4 -6 15 -3 11 4 23 2
27 -4 3 -5 11 -10 17 -10 6 0 5 7 -3 18 -13 15 -12 16 4 3 25 -20 44 -55 25
-48 -7 2 -12 10 -10 16 4 18 -16 3 -29 -20 -9 -19 -9 -19 10 -10 16 9 23 7 40
-15 12 -15 21 -22 21 -16 0 6 -4 14 -10 17 -16 10 -11 23 8 20 9 -1 16 -7 15
-12 -1 -5 5 -10 13 -10 17 0 19 13 2 20 -10 4 -10 6 0 6 17 1 15 18 -3 18 -8
0 -11 -5 -8 -10 3 -6 1 -7 -5 -3 -21 13 -13 27 13 22 30 -6 32 0 6 14 -26 13
-51 3 -44 -18 8 -21 -1 -14 -15 13 -9 19 -7 20 33 20 24 0 42 -2 40 -6 -2 -3
9 -6 25 -6 16 0 27 3 25 6 -2 3 18 6 45 6 38 0 47 -2 42 -15 -5 -13 -3 -13 11
-2 9 8 21 11 27 7 5 -3 10 -1 10 6 0 7 7 4 15 -7 8 -10 14 -23 15 -29 0 -5 -5
-3 -10 5 -8 13 -10 13 -10 1 0 -11 -4 -10 -13 4 -14 18 -43 13 -32 -6 4 -5 1
-9 -4 -9 -6 0 -11 5 -11 12 0 6 -7 3 -16 -8 -15 -18 -15 -18 -5 3 6 12 11 24
11 26 0 9 -60 -1 -74 -12 -11 -9 -15 -9 -19 1 -5 16 -12 10 -22 -20 -5 -19 -3
-23 12 -20 10 2 17 -2 16 -9 -2 -7 2 -13 7 -13 6 0 10 7 10 15 0 8 5 15 11 15
5 0 7 -5 3 -11 -4 -8 -1 -8 12 -2 11 5 26 9 34 8 8 -1 23 3 33 7 12 6 19 4 23
-7 6 -14 8 -14 19 1 11 16 13 16 23 -2 6 -10 12 -14 12 -7 0 7 6 10 14 7 8 -3
17 -1 21 5 3 6 11 11 17 11 6 0 3 -9 -6 -19 -14 -15 -15 -21 -4 -27 7 -4 10
-4 6 1 -11 12 11 35 28 28 7 -3 12 -8 9 -12 -2 -4 2 -8 10 -8 11 0 12 4 3 14
-8 10 -6 13 10 10 11 -2 28 -9 39 -17 17 -14 17 -13 -1 8 -23 26 -11 29 17 4
11 -9 17 -12 14 -6 -4 7 0 17 8 24 13 11 14 10 9 -4 -5 -13 -2 -17 12 -14 11
2 18 -2 17 -8 -1 -6 5 -11 13 -11 17 0 19 13 2 20 -10 4 -10 6 0 6 6 1 12 6
12 12 0 5 -5 7 -10 4 -6 -4 -9 -1 -8 6 2 6 -3 14 -10 16 -11 4 -12 1 -4 -14 9
-15 8 -20 -3 -20 -8 0 -12 4 -9 9 3 4 2 13 -2 19 -4 8 -9 7 -15 -2 -4 -7 -26
-14 -48 -14 -22 0 -38 2 -36 5 2 4 -2 7 -9 7 -8 0 -12 -6 -9 -14 3 -7 0 -13
-6 -13 -6 0 -10 3 -10 8 3 18 -2 22 -20 13 -14 -8 -20 -7 -24 3 -6 16 3 30 23
34 10 1 9 -2 -4 -13 -26 -20 -2 -19 30 1 23 16 24 16 17 -2 -6 -17 -5 -17 11
-5 18 15 79 23 70 10 -2 -4 5 -7 16 -6 11 1 20 6 20 11 0 6 5 5 12 -2 7 -7 17
-8 29 -1 15 7 17 6 13 -5 -4 -11 1 -14 20 -12 22 3 24 1 14 -11 -8 -10 -13
-11 -18 -3 -5 8 -9 6 -14 -5 -9 -24 -8 -26 12 -23 9 2 16 -3 15 -9 -2 -7 2
-13 7 -13 6 0 10 7 10 15 0 8 5 15 11 15 5 0 7 -5 3 -11 -4 -8 -1 -8 12 -2 11
5 26 9 34 8 8 -1 23 3 33 7 12 6 19 4 23 -7 6 -14 8 -14 19 1 11 16 13 16 23
-2 6 -10 12 -14 12 -8 0 12 28 12 47 1 6 -4 14 -3 17 2 7 11 25 9 45 -3 10 -6
12 -5 7 2 -4 7 -3 12 3 12 5 0 9 9 8 20 -1 11 -5 20 -10 20 -5 0 -6 -7 -3 -16
6 -15 4 -15 -11 -3 -9 8 -14 9 -10 2 5 -7 1 -10 -10 -8 -10 1 -22 0 -28 -3
-20 -12 -63 -8 -58 5 4 11 8 11 20 1 12 -10 14 -9 13 3 -5 30 1 35 34 35 19 0
32 -5 29 -9 -3 -5 4 -6 15 -3 11 4 23 2 27 -4 3 -5 11 -10 17 -10 6 0 5 7 -3
18 -13 15 -12 16 4 3 25 -20 44 -55 25 -48 -7 2 -12 10 -10 16 4 18 -16 3 -29
-20 -9 -19 -9 -19 10 -10 16 9 23 7 40 -15 12 -15 21 -22 21 -16 0 6 -4 14
-10 17 -16 10 -11 23 8 20 9 -1 16 -7 15 -12 -1 -5 5 -10 13 -10 17 0 19 13 2
20 -10 4 -10 6 0 6 17 1 15 18 -3 18 -8 0 -11 -5 -8 -10 3 -6 1 -7 -5 -3 -21
13 -13 27 13 22 30 -6 32 0 6 14 -26 13 -51 3 -44 -18 8 -21 -1 -14 -15 13 -9
19 -7 20 33 20 24 0 42 -2 40 -6 -2 -3 9 -6 25 -6 16 0 27 3 25 6 -2 3 18 6
45 6 38 0 47 -2 42 -15 -5 -13 -3 -13 11 -2 9 8 21 11 27 7 5 -3 10 -1 10 6 0
7 7 4 15 -7 8 -10 14 -23 15 -29 0 -5 -5 -3 -10 5 -8 13 -10 13 -10 1 0 -11
-4 -10 -13 4 -14 18 -43 13 -32 -6 4 -5 1 -9 -4 -9 -6 0 -11 5 -11 12 0 6 -7
3 -16 -8 -15 -18 -15 -18 -5 3 6 12 11 24 11 26 0 9 -60 -1 -74 -12 -11 -9
-15 -9 -19 1 -5 16 -12 10 -22 -20 -5 -19 -3 -23 12 -20 10 2 17 -2 16 -9 -2
-7 2 -13 7 -13 6 0 10 7 10 15 0 8 5 15 11 15 5 0 7 -5 3 -11 -4 -8 -1 -8 12
-2 11 5 26 9 34 8 8 -1 23 3 33 7 12 6 19 4 23 -7 6 -14 8 -14 19 1 11 16 13
16 23 -2 6 -10 12 -14 12 -8 0 11 28 12 46 1 6 -3 14 -3 18 0 4 4 16 8 27 10
14 2 18 -1 13 -9 -6 -10 -5 -10 8 -1 8 7 17 10 21 7 5 -5 4 4 -2 35 -1 2 -7
-2 -15 -8 -12 -10 -17 -8 -26 8 -9 18 -14 19 -31 10 -19 -10 -20 -11 -3 -23
12 -9 14 -15 6 -20 -7 -4 -12 -3 -12 3 0 6 -13 9 -29 7 -22 -2 -28 0 -24 11 4
11 8 11 20 1 12 -10 14 -9 13 3 -1 7 -2 19 -1 26 1 14 47 11 63 -5 17 -17 33
-15 18 3 -7 8 -11 15 -9 16 35 7 37 6 34 -13 -3 -12 0 -18 8 -15 7 2 11 11 9
20 -1 8 2 18 8 22 6 4 7 -1 3 -12 -6 -17 -5 -17 14 0 19 16 33 14 33 -6 0 -5
-7 -7 -15 -4 -8 4 -17 1 -21 -4 -4 -7 3 -9 19 -7 15 1 26 0 27 -4 1 -28 -1
-32 -10 -18 -5 8 -12 11 -17 7 -11 -11 17 -26 35 -19 11 4 13 1 7 -9 -5 -8 -5
-11 1 -6 5 5 9 14 9 19 0 6 6 13 14 16 9 3 11 0 6 -8 -5 -9 -4 -11 4 -6 6 4 9
12 6 17 -11 17 8 9 34 -13 14 -13 20 -16 13 -8 -14 17 -16 34 -2 25 6 -3 10
-2 10 4 0 5 9 8 20 6 11 -2 20 1 20 7 0 5 -7 8 -15 5 -8 -4 -17 -2 -20 3 -6 9
8 14 28 11 5 -1 6 3 2 9 -3 5 -1 10 6 10 10 0 10 3 1 12 -9 9 -15 8 -27 -8 -8
-10 -15 -15 -15 -10 0 5 -6 3 -14 -3 -11 -9 -15 -8 -20 5 -4 9 -4 19 -1 22 3
3 5 0 5 -6 0 -7 4 -12 10 -12 5 0 9 5 7 12 -1 8 10 12 31 12 22 0 31 4 28 13
-3 7 0 15 6 19 7 4 8 3 4 -4 -15 -25 23 -11 44 15 12 16 19 22 15 16 -8 -17
10 -50 19 -34 4 6 2 11 -5 11 -8 0 -9 3 0 13 6 8 7 18 3 22 -4 5 -2 5 5 1 6
-3 14 -2 17 3 3 5 15 7 26 4 12 -3 20 0 20 6 0 7 -5 9 -12 5 -7 -4 -8 -3 -4 5
4 6 11 9 16 6 4 -3 11 3 14 12 5 12 10 13 18 5 8 -8 17 -8 30 -1 15 8 17 13 7
25 -6 8 -7 14 -3 14 5 0 15 -9 22 -21 10 -15 10 -19 1 -14 -8 6 -10 4 -4 -5 6
-9 4 -11 -5 -5 -9 6 -11 4 -5 -5 6 -9 4 -11 -5 -5 -8 5 -11 4 -7 -2 4 -6 -6
-9 -23 -8 -29 2 -37 -5 -24 -18 4 -3 15 -2 25 3 12 7 20 7 24 0 4 -6 3 -10 -2
-9 -15 4 -68 -23 -55 -28 6 -3 9 -10 6 -15 -4 -7 -2 -8 5 -4 6 4 8 12 5 18 -5
8 -1 9 10 5 19 -8 51 17 41 32 -3 5 -1 12 5 16 5 3 10 1 10 -4 0 -6 8 -11 18
-10 10 0 12 3 4 6 -6 2 -10 9 -7 13 3 5 12 7 20 3 8 -3 15 0 15 5 0 15 30 43
40 37 4 -2 6 -18 5 -35 -1 -16 1 -28 5 -25 9 6 7 46 -4 63 -5 9 -3 12 7 10 9
-2 15 -1 15 2 -1 3 4 16 11 29 11 19 15 21 22 10 8 -12 10 -11 8 1 -4 36 1 44
14 26 12 -16 13 -16 15 3 4 46 6 51 24 57 19 6 19 6 1 21 -17 14 -17 14 5 10
15 -4 26 1 33 14 5 11 14 17 18 14 5 -3 11 1 14 9 4 10 -1 13 -16 10 -12 -2
-16 -2 -10 2 9 4 10 11 3 25 -14 24 5 26 19 2 10 -17 10 -17 11 0 0 9 -4 17
-10 17 -5 0 -7 7 -4 15 6 14 8 13 20 -2 13 -17 14 -17 7 2 -6 17 -5 18 9 7 13
-10 18 -10 24 -1 4 7 3 9 -4 5 -15 -9 -26 12 -14 27 10 11 12 17 12 35 0 4 5
0 10 -8 6 -9 10 -10 10 -3 0 6 -5 15 -12 19 -7 5 -5 11 7 21 11 7 13 13 7 13
-9 0 -9 6 2 23 8 12 12 34 11 50 -3 18 0 25 7 21 7 -5 8 -2 3 6 -6 10 -4 12 8
7 11 -4 14 -2 11 8 -3 8 -12 11 -20 8 -8 -3 -14 0 -14 6 0 6 6 11 14 11 8 0
18 4 21 10 4 6 -1 7 -12 3 -17 -6 -17 -5 1 15 16 18 17 24 6 37 -12 14 -15 14
-30 0 -9 -8 -20 -12 -23 -8 -10 10 -8 -10 3 -27 7 -11 10 -11 10 -2 0 7 5 10
11 6 8 -4 7 -9 -2 -15 -8 -5 -10 -9 -6 -9 4 0 3 -10 -4 -21 -8 -17 -8 -20 1
-14 9 5 10 1 5 -16 -11 -37 -26 -51 -40 -39 -6 5 -15 7 -18 3 -4 -3 -7 -1 -7
5 0 7 4 12 9 12 5 0 9 10 9 23 0 19 6 50 12 67 1 3 3 12 4 20 0 8 6 14 13 13
6 -2 15 6 18 17 5 17 10 18 27 9 12 -7 18 -7 14 -1 -3 6 0 13 6 15 10 4 9 8
-2 16 -12 9 -13 11 -1 11 8 0 11 3 8 6 -4 4 -13 2 -21 -5 -11 -9 -15 -8 -19 3
-4 9 -1 18 5 22 7 5 8 2 3 -7 -7 -11 -6 -12 7 -2 8 7 17 10 20 7 4 -3 5 9 4
26 -2 35 20 74 36 64 7 -4 8 -2 4 5 -6 9 -11 9 -22 0 -15 -12 -16 -11 -17 24
-1 27 -17 39 -33 26 -15 -13 -28 6 -29 43 -1 23 1 25 19 16 17 -9 18 -12 6
-17 -14 -5 -16 -15 -11 -38 1 -5 7 3 12 16 9 23 10 24 24 5 14 -18 15 -17 11
8 -3 19 1 31 12 38 9 5 12 10 5 10 -6 0 -15 -5 -18 -10 -4 -6 -11 -7 -17 -4
-7 4 -4 10 6 16 16 9 16 11 -1 23 -10 7 -19 18 -19 24 -1 6 -2 16 -3 22 0 5
-6 7 -11 4 -7 -4 -7 -12 0 -24 5 -10 6 -22 2 -26 -4 -5 -2 -6 4 -2 6 3 10 -4
10 -18 0 -22 -2 -23 -16 -10 -11 10 -15 33 -15 87 0 79 7 100 30 91 8 -3 15 0
15 7 0 6 -4 8 -10 5 -5 -3 -10 -1 -10 6 0 8 -4 8 -13 1 -10 -9 -13 9 -12 89 0
58 4 99 10 99 6 0 11 -4 11 -10 1 -5 2 -11 4 -12 6 -9 5 -50 -2 -54 -4 -3 -8
-10 -8 -17 0 -6 7 -2 16 9 14 18 15 18 4 -3 -6 -13 -8 -23 -5 -23 3 0 1 -10
-6 -21 -6 -12 -7 -19 -2 -16 5 4 10 0 10 -7 0 -8 -6 -12 -14 -9 -7 3 -13 1
-13 -4 0 -5 9 -9 20 -10 11 -1 20 4 19 10 -3 25 1 38 11 32 6 -4 8 -10 6 -14
-6 -9 32 -7 39 2 3 4 2 5 -1 2 -4 -2 -15 0 -26 6 -16 9 -17 13 -6 27 11 15 11
16 -4 4 -9 -8 -19 -9 -22 -4 -3 6 0 12 7 15 7 2 13 18 14 33 1 25 0 26 -7 9
-5 -11 -9 -17 -10 -12 -6 24 -2 45 14 70 10 15 16 30 12 34 -3 3 -6 1 -6 -6 0
-9 -4 -9 -14 1 -15 14 -11 32 5 23 5 -3 6 0 3 8 -3 8 2 20 11 27 8 7 15 17 15
23 0 6 -6 3 -13 -7 -12 -16 -14 -16 -32 5 -20 22 -20 22 1 15 17 -5 20 -2 20
24 0 20 -4 29 -12 26 -22 -8 -24 7 -3 22 15 10 17 17 9 27 -8 9 -8 15 0 20 7
4 7 12 0 26 -6 11 -15 17 -21 14 -16 -11 -10 32 7 46 15 12 16 11 10 -9 -4
-12 -3 -22 2 -22 5 0 9 15 8 32 0 19 4 32 10 31 6 -1 11 5 11 13 0 10 -4 11
-11 4 -6 -6 -16 -4 -28 7 -11 10 -18 11 -18 5 0 -7 5 -12 12 -12 6 0 3 -7 -8
-15 -16 -13 -17 -16 -4 -25 13 -8 8 -14 -11 -12 -9 1 -7 -32 3 -45 5 -7 6 -18
2 -24 -5 -8 -3 -9 7 -4 11 7 12 6 3 -6 -6 -8 -10 -32 -10 -54 2 -32 6 -39 19
-37 9 2 17 -2 17 -9 0 -6 -8 -9 -18 -7 -16 5 -18 0 -15 -36 2 -22 4 -51 5 -63
1 -12 6 -21 11 -20 5 1 11 -3 14 -9 2 -6 -3 -11 -11 -11 -8 0 -18 7 -20 14 -3
8 -9 12 -13 10 -5 -3 -8 505 -8 1128 0 623 3 1131 7 1128 5 -2 5 -10 1 -16 -3
-7 3 -4 14 6 11 9 23 14 28 10 4 -5 5 -2 1 5 -6 10 -11 10 -22 1 -8 -7 -14 -7
-14 -1 0 5 7 15 15 22 8 7 15 17 15 23 0 6 -7 1 -16 -11 -18 -26 -33 -29 -29
-4 1 9 0 21 -3 26 -3 6 -6 24 -8 40 -1 17 -6 48 -12 69 -6 21 -6 35 -1 32 5
-4 9 -2 9 4 0 5 -5 11 -10 13 -6 2 -12 13 -14 25 -3 12 -10 31 -16 42 -6 12
-7 21 -3 21 4 0 1 4 -7 10 -8 5 -11 12 -8 15 12 12 30 -7 23 -24 -5 -13 -4
-14 7 -3 11 11 8 17 -15 36 -38 31 -82 117 -65 128 9 5 5 8 -10 8 -13 0 -20 4
-17 10 4 6 12 7 18 4 8 -5 8 -3 0 7 -17 17 -17 32 0 23 7 -4 9 -3 4 2 -5 5
-14 9 -20 9 -7 0 -11 8 -11 16 1 11 -7 16 -25 15 -20 -1 -26 4 -26 19 -1 21
-24 68 -25 49 0 -5 5 -15 12 -22 8 -8 8 -12 1 -12 -20 0 -36 29 -25 43 6 7 7
18 3 26 -6 9 -11 10 -15 2 -4 -6 -2 -11 5 -11 10 0 10 -3 2 -11 -8 -8 -19 -4
-40 15 -20 19 -24 29 -16 34 9 5 6 12 -10 21 -20 13 -21 13 -8 -2 7 -10 9 -17
3 -17 -6 0 -20 12 -32 28 -12 15 -18 20 -15 12 4 -8 -4 -2 -18 13 -14 16 -29
29 -34 30 -4 1 -7 5 -6 9 2 4 -4 5 -12 2 -10 -4 -15 0 -15 12 0 16 -2 17 -10
4 -9 -13 -10 -13 -11 0 -1 8 -1 20 1 25 1 6 -4 4 -11 -2 -10 -10 -20 -7 -48
14 -19 15 -30 20 -26 12 7 -11 4 -11 -15 2 -28 17 -132 56 -170 63 -14 3 -36
8 -50 13 -25 8 -3053 17 -3061 9z m3704 -446 c-3 -3 -8 1 -10 8 -3 7 -11 18
-18 26 -8 7 -11 16 -8 20 4 3 15 -6 24 -21 10 -15 15 -30 12 -33z m201 -2425
c-4 -8 -11 -12 -16 -9 -6 4 -5 10 3 15 19 12 19 11 13 -6z m-5 -111 c-7 -8 -6
-14 1 -19 13 -8 3 -25 -13 -24 -8 0 -7 3 2 6 11 5 11 7 0 14 -11 6 -11 11 -2
20 6 6 9 19 6 28 -4 13 -3 14 5 1 7 -9 8 -18 1 -26z m4 -170 c-7 -18 -12 -13
-18 16 -3 18 -2 20 10 10 8 -6 11 -18 8 -26z m-8 -544 c-3 -5 -1 -10 4 -10 6
0 11 -5 11 -11 0 -6 -9 -9 -19 -6 -14 3 -18 1 -14 -9 3 -7 8 -13 11 -12 26 3
34 -3 22 -17 -6 -8 -9 -18 -6 -24 8 -12 -4 -42 -14 -36 -5 3 -15 -1 -22 -9
-12 -11 -14 -3 -14 59 1 50 5 71 12 68 7 -2 15 0 19 6 3 6 8 11 11 11 3 0 2
-4 -1 -10z m-15 -170 c3 -1 8 -2 13 -1 4 0 7 -4 7 -10 0 -6 -6 -9 -12 -6 -7 2
-20 -2 -28 -9 -14 -12 -16 -10 -16 10 0 21 10 26 36 16z m15 -80 c-5 -8 -11
-8 -17 -2 -6 6 -7 16 -3 22 5 8 11 8 17 2 6 -6 7 -16 3 -22z m-30 -131 c-2
-12 -9 -27 -16 -35 -6 -8 -8 -14 -3 -14 11 -1 -26 -30 -37 -30 -4 0 -7 9 -6
19 0 11 5 17 9 15 4 -3 8 0 8 6 0 6 4 9 9 5 5 -3 12 -1 16 4 3 6 -6 8 -22 5
-34 -6 -36 -8 -39 -40 -3 -24 0 -26 26 -22 22 3 27 1 20 -7 -5 -7 -7 -15 -3
-18 3 -4 -2 -9 -11 -13 -9 -3 -13 -10 -10 -15 3 -5 2 -9 -3 -8 -4 1 -17 1 -28
0 -17 -1 -18 -3 -5 -11 10 -6 11 -10 3 -10 -20 0 -28 4 -25 13 3 10 -16 9 -23
-2 -3 -5 4 -16 14 -23 18 -13 21 -27 12 -80 0 -4 -7 -5 -15 -2 -16 6 -15 26 2
47 10 12 10 17 1 23 -8 5 -9 3 -4 -6 6 -9 4 -11 -5 -5 -9 6 -11 4 -5 -6 7 -12
6 -12 -6 0 -11 11 -11 14 -1 18 9 4 10 9 2 18 -7 9 -6 16 5 25 8 7 12 17 8 23
-3 6 -1 7 5 3 11 -6 17 13 13 37 -1 5 3 6 9 2 5 -3 11 0 12 7 3 29 4 34 17 56
8 16 18 21 30 17 10 -3 24 1 31 10 17 20 20 19 15 -6z m-4600 -158 c3 -5 0
-13 -6 -17 -7 -4 -9 -3 -5 4 3 5 0 13 -6 15 -9 4 -10 6 -1 6 6 1 14 -3 18 -8z
m4452 -76 c0 -8 -4 -15 -8 -15 -9 0 -7 -20 4 -37 5 -7 0 -10 -15 -6 -13 3 -19
1 -13 -4 6 -4 10 -14 9 -20 -1 -7 -2 -17 -3 -23 0 -6 -5 -9 -10 -7 -13 3 -62
-64 -55 -74 3 -5 -2 -6 -10 -3 -10 4 -27 -6 -46 -26 -16 -18 -30 -29 -30 -25
0 4 -8 1 -17 -6 -15 -11 -16 -11 -6 1 10 10 10 17 1 28 -14 16 6 34 29 25 8
-3 13 0 11 8 -2 7 2 13 7 14 6 0 16 4 24 9 11 7 13 5 8 -7 -4 -11 -2 -14 9
-10 10 4 12 9 4 18 -5 6 -6 16 -2 21 4 4 0 3 -9 -4 -14 -10 -18 -10 -23 4 -8
22 33 69 48 54 20 -20 29 -10 10 12 -10 12 -13 18 -6 14 11 -6 16 4 14 26 -1
3 6 12 15 20 14 11 16 11 8 -2 -5 -8 -10 -28 -10 -45 0 -16 -9 -43 -19 -58
-10 -15 -16 -30 -13 -34 4 -3 10 2 14 13 11 28 36 54 46 47 6 -4 7 -1 1 8 -5
8 -9 33 -9 57 0 38 1 40 14 25 12 -17 13 -16 8 4 -3 14 -1 20 7 17 7 -3 13
-11 13 -19z m-146 -152 c9 -11 10 -14 2 -10 -7 5 -24 0 -38 -9 -14 -9 -28 -14
-31 -11 -3 3 4 8 15 12 12 3 18 11 15 17 -4 7 -2 8 4 4 7 -4 12 -2 12 3 0 15
5 14 21 -6z m-96 -63 c3 -5 1 -10 -4 -10 -6 0 -11 5 -11 10 0 6 2 10 4 10 3 0
8 -4 11 -10z m-3761 -116 c3 -8 2 -12 -4 -9 -6 3 -10 1 -10 -4 0 -6 9 -11 21
-11 11 0 17 4 14 10 -3 6 1 7 10 4 9 -4 14 -13 11 -20 -3 -8 -1 -14 4 -14 6 0
10 6 10 13 0 9 3 8 9 -2 7 -11 9 -11 14 0 4 9 6 8 6 -5 1 -15 4 -16 16 -6 13
11 14 10 8 -6 -6 -17 -5 -18 12 -4 11 9 16 10 11 3 -4 -7 -2 -13 3 -13 6 0 11
5 11 10 0 6 5 10 12 10 9 0 9 -3 0 -12 -16 -16 -15 -28 3 -28 8 0 14 3 14 8
-4 21 3 23 20 8 12 -11 25 -15 33 -10 22 14 43 15 29 1 -6 -6 -11 -16 -11 -21
1 -6 10 0 20 13 11 13 20 18 20 13 0 -7 15 -9 37 -6 34 4 36 3 19 -9 -12 -9
-17 -20 -13 -31 4 -11 3 -15 -4 -10 -6 3 -9 15 -6 25 6 23 -3 24 -29 4 -16
-13 -16 -14 -1 -9 9 3 17 2 17 -3 0 -16 -51 -8 -65 10 -6 9 -14 14 -17 12 -11
-11 -51 -14 -69 -5 -12 7 -20 7 -24 0 -4 -6 -11 -8 -16 -4 -5 3 -7 9 -4 14 8
13 -29 30 -54 25 -11 -2 -21 0 -21 5 0 5 -8 7 -17 3 -15 -5 -15 -3 2 12 19 17
19 17 -5 2 -24 -14 -26 -13 -36 7 -7 15 -7 25 0 33 14 15 13 15 20 -3z m3440
-49 c-4 -11 -2 -13 9 -9 8 3 18 0 22 -6 5 -8 11 -8 19 -1 9 8 13 7 13 -4 0
-17 -14 -23 -47 -20 -14 1 -29 -3 -35 -9 -5 -6 -9 -9 -8 -7 2 2 -3 11 -10 19
-9 12 -9 16 1 19 6 3 9 10 6 15 -4 6 -2 8 4 4 6 -3 13 -2 17 4 9 15 15 12 9
-5z m-2801 -54 c-3 -21 15 -25 29 -6 12 16 9 27 -4 19 -7 -4 -9 -3 -5 1 15 17
36 14 29 -3 -5 -15 -3 -15 11 -4 9 8 21 11 27 7 5 -3 10 0 10 7 0 7 7 2 16
-10 9 -13 13 -26 10 -29 -3 -4 -6 0 -6 7 0 9 -5 8 -13 -5 -10 -13 -16 -15 -21
-6 -4 6 -12 8 -19 4 -6 -3 -35 -7 -64 -8 -51 -2 -53 -2 -37 16 9 10 13 22 10
27 -3 6 2 9 11 7 12 -1 17 -10 16 -24z m147 15 c-7 -7 -13 -7 -20 0 -6 6 -3
10 10 10 13 0 16 -4 10 -10z m480 0 c-7 -7 -13 -7 -20 0 -6 6 -3 10 10 10 13
0 16 -4 10 -10z m333 -15 c-3 -21 15 -25 29 -6 12 16 9 27 -4 19 -7 -4 -9 -3
-5 1 15 17 36 14 29 -3 -5 -15 -3 -15 11 -4 9 8 21 11 27 7 5 -3 10 0 10 7 0
7 7 2 16 -10 9 -13 13 -26 10 -29 -3 -4 -6 0 -6 7 0 9 -5 8 -13 -5 -10 -13
-16 -15 -21 -6 -4 6 -12 8 -19 4 -6 -3 -35 -7 -64 -8 -51 -2 -53 -2 -37 16 9
10 13 22 10 27 -3 6 2 9 11 7 12 -1 17 -10 16 -24z m147 15 c-7 -7 -13 -7 -20
0 -6 6 -3 10 10 10 13 0 16 -4 10 -10z m480 0 c-7 -7 -13 -7 -20 0 -6 6 -3 10
10 10 13 0 16 -4 10 -10z m333 -15 c-3 -21 15 -25 29 -6 12 16 9 27 -4 19 -7
-4 -9 -3 -5 1 15 17 36 14 29 -3 -5 -15 -3 -15 11 -4 9 8 21 11 27 7 5 -3 10
0 10 7 0 7 7 2 16 -10 9 -13 13 -26 10 -29 -3 -4 -6 0 -6 7 0 9 -5 8 -13 -5
-10 -13 -16 -15 -21 -6 -4 6 -12 8 -19 4 -6 -3 -35 -7 -64 -8 -51 -2 -53 -2
-37 16 9 10 13 22 10 27 -3 6 2 9 11 7 12 -1 17 -10 16 -24z m147 15 c-7 -7
-13 -7 -20 0 -6 6 -3 10 10 10 13 0 16 -4 10 -10z m480 0 c-7 -7 -13 -7 -20 0
-6 6 -3 10 10 10 13 0 16 -4 10 -10z m-2059 -31 c0 -5 -18 -10 -40 -11 -22 0
-38 3 -35 8 3 5 9 6 14 3 5 -3 11 -1 14 3 7 12 46 10 47 -3z m83 -1 c5 -14 4
-15 -9 -4 -17 14 -19 20 -6 20 5 0 12 -7 15 -16z m64 3 c8 -10 6 -13 -7 -13
-11 0 -17 6 -14 13 3 7 6 13 8 13 1 0 7 -6 13 -13z m813 -2 c0 -5 -18 -10 -40
-11 -22 0 -38 3 -35 8 3 5 9 6 14 3 5 -3 11 -1 14 3 7 12 46 10 47 -3z m83 -1
c5 -14 4 -15 -9 -4 -17 14 -19 20 -6 20 5 0 12 -7 15 -16z m64 3 c8 -10 6 -13
-7 -13 -11 0 -17 6 -14 13 3 7 6 13 8 13 1 0 7 -6 13 -13z m813 -2 c0 -5 -18
-10 -40 -11 -22 0 -38 3 -35 8 3 5 9 6 14 3 5 -3 11 -1 14 3 7 12 46 10 47 -3z
m83 -1 c5 -14 4 -15 -9 -4 -17 14 -19 20 -6 20 5 0 12 -7 15 -16z m131 5 c11
-17 -1 -21 -15 -4 -8 9 -8 15 -2 15 6 0 14 -5 17 -11z m-2765 -3 c0 -2 -8 -10
-17 -17 -16 -13 -17 -12 -4 4 13 16 21 21 21 13z"/>
<path d="M4930 1182 c0 -4 5 -13 12 -20 7 -7 8 -12 2 -12 -12 0 -16 -38 -4
-45 4 -2 14 3 21 12 10 12 10 14 2 9 -15 -8 -17 5 -4 20 4 5 0 16 -10 27 -11
9 -19 13 -19 9z"/>
<path d="M4830 725 c-14 -36 -13 -37 10 -25 21 11 27 35 10 45 -6 3 -15 -6
-20 -20z"/>
<path d="M4676 511 c-4 -6 -3 -18 2 -27 8 -15 10 -14 16 2 8 20 -8 42 -18 25z"/>
<path d="M4650 480 c0 -5 5 -10 10 -10 6 0 10 5 10 10 0 6 -4 10 -10 10 -5 0
-10 -4 -10 -10z"/>
<path d="M4633 423 c4 -6 1 -16 -7 -22 -11 -9 -15 -9 -18 1 -3 8 -6 9 -11 1
-12 -19 21 -22 38 -3 12 14 13 20 4 26 -7 4 -10 3 -6 -3z"/>
<path d="M903 195 c0 -8 4 -12 9 -9 5 3 6 10 3 15 -9 13 -12 11 -12 -6z"/>
<path d="M963 197 c0 -8 6 -14 14 -14 9 0 10 4 2 14 -6 7 -12 13 -14 13 -1 0
-2 -6 -2 -13z"/>
<path d="M1049 173 c-13 -16 -12 -17 4 -4 16 13 21 21 13 21 -2 0 -10 -8 -17
-17z"/>
<path d="M4195 200 c-2 -4 11 -7 29 -6 19 0 32 4 30 7 -5 9 -53 8 -59 -1z"/>
<path d="M1406 173 c-6 -14 -5 -15 5 -6 7 7 10 15 7 18 -3 3 -9 -2 -12 -12z"/>
<path d="M1484 168 c-5 -7 -2 -8 6 -3 7 4 15 2 20 -5 5 -9 8 -8 13 2 6 17 -29
22 -39 6z"/>
<path d="M2366 173 c-6 -14 -5 -15 5 -6 7 7 10 15 7 18 -3 3 -9 -2 -12 -12z"/>
<path d="M2444 168 c-5 -7 -2 -8 6 -3 7 4 15 2 20 -5 5 -9 8 -8 13 2 6 17 -29
22 -39 6z"/>
<path d="M3326 173 c-6 -14 -5 -15 5 -6 7 7 10 15 7 18 -3 3 -9 -2 -12 -12z"/>
<path d="M3404 168 c-5 -7 -2 -8 6 -3 7 4 15 2 20 -5 5 -9 8 -8 13 2 6 17 -29
22 -39 6z"/>
<path d="M4716 4613 c-6 -14 -5 -15 5 -6 7 7 10 15 7 18 -3 3 -9 -2 -12 -12z"/>
<path d="M4727 4556 c-4 -10 -1 -13 9 -9 15 6 19 23 5 23 -5 0 -11 -7 -14 -14z"/>
<path d="M4815 4460 c3 -5 8 -10 11 -10 2 0 4 5 4 10 0 6 -5 10 -11 10 -5 0
-7 -4 -4 -10z"/>
<path d="M4810 4430 c-12 -8 -12 -10 2 -15 9 -4 15 -12 12 -19 -3 -7 2 -19 10
-26 9 -7 13 -16 10 -21 -3 -5 2 -6 11 -3 14 6 13 9 -5 21 -12 8 -19 21 -16 29
3 7 1 16 -5 19 -5 4 -7 11 -4 16 8 11 4 11 -15 -1z"/>
<path d="M4853 4404 c-3 -8 -2 -19 3 -24 5 -5 9 1 9 16 0 28 -3 30 -12 8z"/>
<path d="M4879 4324 c17 -13 25 -14 34 -5 9 9 8 11 -4 6 -10 -4 -20 -2 -24 4
-3 6 -11 11 -18 11 -6 0 -1 -7 12 -16z"/>
<path d="M4900 4286 c0 -2 8 -10 18 -17 15 -13 16 -12 3 4 -13 16 -21 21 -21
13z"/>
<path d="M4886 4261 c-3 -5 1 -14 10 -21 12 -10 17 -11 27 -1 9 10 8 11 -7 5
-13 -5 -17 -4 -12 4 3 6 2 13 -3 16 -5 4 -12 2 -15 -3z"/>
<path d="M4910 4206 c29 -17 40 -20 40 -8 0 5 -6 9 -12 9 -7 0 -22 4 -33 7
-13 5 -12 2 5 -8z"/>
<path d="M4921 4173 c0 -6 -4 -20 -7 -30 -5 -14 -4 -15 5 -7 7 7 11 20 8 30
-3 11 -5 14 -6 7z"/>
<path d="M4927 4116 c-4 -10 -1 -13 9 -9 15 6 19 23 5 23 -5 0 -11 -7 -14 -14z"/>
<path d="M4950 4089 c0 -5 5 -7 10 -4 6 3 10 8 10 11 0 2 -4 4 -10 4 -5 0 -10
-5 -10 -11z"/>
<path d="M4932 4057 c-8 -10 -6 -13 11 -14 12 0 16 1 9 4 -6 3 -10 9 -6 14 8
14 -2 11 -14 -4z"/>
<path d="M4948 3946 c-22 -16 -22 -26 -3 -52 15 -18 15 -18 8 0 -5 14 -3 17 7
11 9 -5 11 -4 6 4 -4 6 -12 8 -18 5 -6 -4 -9 -1 -6 7 3 8 14 13 24 12 10 -1
13 0 6 3 -6 3 -10 10 -6 15 7 12 2 11 -18 -5z"/>
<path d="M4996 3915 c-11 -8 -15 -15 -9 -15 6 0 16 7 23 15 16 19 11 19 -14 0z"/>
<path d="M4974 3882 c4 -3 14 -7 22 -8 9 -1 13 0 10 4 -4 3 -14 7 -22 8 -9 1
-13 0 -10 -4z"/>
<path d="M4935 3851 c2 -14 6 -35 10 -45 5 -12 5 -17 -1 -13 -11 7 -12 -82 -1
-100 4 -6 3 -13 -3 -15 -6 -2 -2 -8 8 -15 13 -7 23 -8 33 -1 11 8 11 9 -3 4
-10 -3 -20 -1 -23 4 -4 6 1 10 9 10 8 0 17 4 20 9 4 5 -3 7 -14 4 -12 -3 -20
0 -20 6 0 7 5 9 12 5 7 -4 8 -3 4 5 -4 6 -11 9 -15 7 -4 -3 -8 8 -8 24 0 25 3
28 16 17 10 -8 13 -8 8 0 -4 6 -4 13 0 16 5 2 2 2 -4 1 -16 -4 -16 1 -2 28 8
15 8 19 0 14 -6 -4 -11 -3 -11 2 0 15 13 22 24 12 8 -6 12 -3 12 10 0 18 -2
18 -23 5 -13 -9 -23 -11 -23 -6 0 6 7 14 16 19 14 8 14 10 -3 14 -16 4 -19 1
-18 -21z"/>
<path d="M4996 3755 c-11 -8 -15 -15 -9 -15 6 0 16 7 23 15 16 19 11 19 -14 0z"/>
<path d="M4974 3722 c4 -3 14 -7 22 -8 9 -1 13 0 10 4 -4 3 -14 7 -22 8 -9 1
-13 0 -10 -4z"/>
<path d="M4938 3648 c10 -13 10 -17 0 -21 -10 -4 -10 -6 1 -6 11 -1 11 -4 0
-18 -8 -9 -9 -14 -3 -10 7 4 14 1 16 -6 6 -15 -1 -39 -10 -33 -4 2 -8 -6 -8
-19 -1 -13 4 -26 11 -29 9 -3 12 2 10 16 -3 12 0 27 6 34 7 9 7 19 0 33 -9 16
-8 20 7 24 16 4 16 5 -1 6 -10 0 -16 5 -13 10 3 5 -2 15 -12 22 -15 13 -16 12
-4 -3z"/>
<path d="M4975 3639 c-3 -4 2 -6 10 -5 21 3 28 13 10 13 -9 0 -18 -4 -20 -8z"/>
<path d="M4990 3616 c0 -2 8 -10 18 -17 15 -13 16 -12 3 4 -13 16 -21 21 -21
13z"/>
<path d="M4970 3541 c0 -6 4 -12 8 -15 5 -3 9 1 9 9 0 8 -4 15 -9 15 -4 0 -8
-4 -8 -9z"/>
<path d="M5015 3500 c-3 -5 -1 -10 4 -10 6 0 11 5 11 10 0 6 -2 10 -4 10 -3 0
-8 -4 -11 -10z"/>
<path d="M4944 3478 c-14 -21 -12 -56 3 -51 8 3 11 8 9 11 -3 3 -1 11 6 19 8
10 8 17 1 24 -8 8 -13 7 -19 -3z m8 -20 c-7 -7 -12 -8 -12 -2 0 6 3 14 7 17 3
4 9 5 12 2 2 -3 -1 -11 -7 -17z"/>
<path d="M4970 3440 c0 -5 5 -10 10 -10 6 0 10 5 10 10 0 6 -4 10 -10 10 -5 0
-10 -4 -10 -10z"/>
<path d="M4941 3406 c-9 -10 -8 -15 3 -19 11 -4 13 -1 9 10 -4 11 -2 14 5 9 7
-4 12 -2 12 3 0 15 -15 14 -29 -3z"/>
<path d="M4970 3379 c0 -5 5 -7 10 -4 6 3 10 8 10 11 0 2 -4 4 -10 4 -5 0 -10
-5 -10 -11z"/>
<path d="M4949 3358 c-1 -7 -1 -16 0 -20 0 -5 -4 -8 -11 -8 -9 0 -9 -3 0 -12
14 -14 16 -32 4 -24 -5 3 -9 -1 -9 -9 0 -15 34 -31 44 -21 4 3 -1 6 -10 6 -9
0 -17 5 -17 10 0 6 8 10 17 10 15 0 14 2 -3 15 -15 12 -16 16 -5 24 11 7 11
10 0 15 -8 3 -4 4 9 2 27 -5 28 0 2 14 -15 8 -20 8 -21 -2z"/>
<path d="M4975 3320 c-3 -5 -1 -10 4 -10 6 0 11 5 11 10 0 6 -2 10 -4 10 -3 0
-8 -4 -11 -10z"/>
<path d="M5015 3261 c-3 -5 -2 -12 3 -15 5 -3 9 1 9 9 0 17 -3 19 -12 6z"/>
<path d="M4934 3240 c0 -13 4 -16 10 -10 7 7 7 13 0 20 -6 6 -10 3 -10 -10z"/>
<path d="M4975 3240 c3 -5 8 -10 11 -10 2 0 4 5 4 10 0 6 -5 10 -11 10 -5 0
-7 -4 -4 -10z"/>
<path d="M4945 3214 c-17 -13 -18 -16 -5 -24 8 -5 20 -10 25 -10 6 0 3 5 -5
10 -13 9 -13 11 0 19 8 6 12 12 10 15 -3 2 -14 -2 -25 -10z"/>
<path d="M4981 3204 c0 -11 3 -14 6 -6 3 7 2 16 -1 19 -3 4 -6 -2 -5 -13z"/>
<path d="M4934 3156 c0 -13 9 -29 19 -36 12 -7 17 -7 12 -1 -3 6 0 11 7 11 7
1 2 7 -12 15 -14 7 -23 16 -22 20 2 4 2 8 0 11 -2 2 -4 -7 -4 -20z"/>
<path d="M4972 3173 c-6 -2 -10 -9 -6 -14 8 -14 21 -11 21 6 0 8 -1 15 -1 14
-1 0 -7 -3 -14 -6z"/>
<path d="M4933 3107 c0 -9 5 -17 11 -17 6 0 4 -5 -4 -10 -13 -9 -13 -10 0 -11
8 -1 21 -1 28 0 7 1 11 -4 10 -11 -5 -22 -21 -27 -33 -12 -9 13 -11 12 -11 -4
0 -15 6 -19 24 -16 14 3 21 1 18 -5 -4 -5 -3 -12 2 -15 5 -3 8 17 7 45 -1 42
1 49 14 44 12 -5 13 -3 4 6 -13 13 -37 3 -28 -12 13 -20 -13 -8 -27 13 -12 18
-15 19 -15 5z"/>
<path d="M4932 2980 c1 -26 4 -29 26 -25 13 2 27 7 31 10 3 3 -6 4 -20 2 -19
-4 -25 -1 -25 13 0 14 3 16 13 8 9 -7 13 -7 13 0 0 8 -22 22 -35 22 -2 0 -3
-13 -3 -30z"/>
<path d="M5015 2989 c-4 -6 -5 -12 -2 -15 2 -3 7 2 10 11 7 17 1 20 -8 4z"/>
<path d="M4975 2941 c-3 -6 -13 -8 -23 -6 -11 2 -18 -3 -18 -14 0 -10 6 -18
12 -18 7 0 10 7 7 14 -3 8 -2 13 3 12 5 -1 20 3 34 9 17 7 20 11 8 11 -9 1
-19 -3 -23 -8z"/>
<path d="M4934 2855 c1 -31 3 -33 13 -18 8 11 9 20 3 28 -5 7 -7 15 -3 18 3 4
2 7 -4 7 -6 0 -10 -16 -9 -35z"/>
<path d="M4960 2880 c0 -5 5 -10 11 -10 5 0 8 -4 4 -9 -3 -5 -1 -12 4 -15 5
-4 8 2 6 11 -2 10 -4 21 -4 26 -1 11 -21 8 -21 -3z"/>
<path d="M5010 2841 c0 -6 4 -13 10 -16 6 -3 7 1 4 9 -7 18 -14 21 -14 7z"/>
<path d="M4950 2821 c-16 -17 -23 -131 -7 -131 4 0 5 -6 0 -12 -10 -17 -11
-118 -1 -112 10 6 10 -10 1 -20 -11 -11 -11 -89 0 -103 6 -8 6 -13 0 -13 -5 0
-9 -11 -9 -24 0 -14 3 -23 7 -20 4 2 10 0 14 -6 4 -6 11 -8 16 -5 5 4 9 2 9
-4 0 -15 -18 -23 -25 -11 -15 23 -22 6 -21 -49 1 -64 6 -74 36 -76 11 -1 18 1
15 3 -3 3 1 12 8 20 8 11 8 14 0 9 -6 -4 -15 -2 -18 4 -4 5 -13 8 -21 5 -8 -3
-14 -1 -14 4 0 6 5 10 11 10 5 0 7 5 4 10 -10 17 7 11 22 -7 13 -16 13 -16 3
5 -10 21 -9 22 15 18 14 -3 23 -1 20 4 -3 5 -19 7 -36 5 -26 -4 -29 -2 -19 10
7 8 16 13 20 10 4 -2 6 6 6 18 -1 12 2 29 8 37 6 8 7 12 2 8 -5 -4 -18 -2 -29
4 -21 11 -21 11 2 20 22 8 23 9 7 33 -17 26 -9 34 13 13 11 -11 12 -10 5 2
-15 26 -14 45 3 57 13 10 13 12 -5 10 -11 0 -18 -5 -15 -10 3 -5 0 -8 -8 -5
-7 2 -13 15 -13 28 0 13 6 26 13 28 8 3 11 0 7 -6 -3 -6 -3 -13 2 -16 4 -2 8
6 8 20 0 27 -6 30 -24 12 -8 -8 -12 -8 -12 -1 0 6 10 18 23 26 l22 16 -24 19
c-16 13 -20 22 -12 26 6 4 11 2 11 -3 0 -6 4 -11 8 -11 5 0 8 12 7 28 -1 15 2
32 6 38 5 6 3 11 -6 11 -8 0 -12 -4 -9 -9 8 -12 -10 -10 -24 4 -17 17 -15 29
3 22 8 -4 15 -1 15 5 0 6 -3 10 -7 10 -23 -4 -25 3 -4 14 14 6 26 19 28 27 3
10 1 9 -7 -2 -6 -10 -16 -18 -22 -18 -7 0 -6 6 2 15 17 21 9 26 -10 6z m27
-116 c0 -11 -26 -17 -28 -6 0 3 -2 14 -4 23 -2 14 0 15 14 6 10 -6 18 -16 18
-23z m3 -68 c0 -5 -7 -6 -16 -3 -8 3 -12 2 -9 -3 3 -5 2 -12 -3 -15 -5 -3 -8
8 -8 23 0 25 2 28 18 18 10 -7 18 -16 18 -20z m-15 -139 c-13 -8 -13 -12 2
-35 16 -24 16 -25 -3 -21 -15 3 -19 12 -19 50 0 45 0 46 18 31 16 -15 16 -18
2 -25z m4 -97 c8 -5 9 -11 3 -15 -5 -3 -15 1 -22 9 -14 16 -3 20 19 6z m-14
-50 c3 -5 2 -12 -3 -15 -5 -3 -9 1 -9 9 0 17 3 19 12 6z m19 -90 c3 -5 -1 -11
-9 -15 -15 -6 -29 7 -18 18 9 9 21 8 27 -3z"/>
<path d="M4987 2773 c3 -7 6 -13 8 -13 2 0 5 6 8 13 3 8 -1 14 -8 14 -7 0 -11
-6 -8 -14z"/>
<path d="M5015 2669 c-4 -6 -5 -12 -2 -15 2 -3 7 2 10 11 7 17 1 20 -8 4z"/>
<path d="M5015 2609 c-4 -6 -5 -12 -2 -15 2 -3 7 2 10 11 7 17 1 20 -8 4z"/>
<path d="M5010 2499 c0 -5 5 -7 10 -4 6 3 10 8 10 11 0 2 -4 4 -10 4 -5 0 -10
-5 -10 -11z"/>
<path d="M5015 2449 c-4 -6 -5 -12 -2 -15 2 -3 7 2 10 11 7 17 1 20 -8 4z"/>
<path d="M4934 2186 c1 -30 5 -42 13 -39 7 3 11 9 8 13 -3 5 -1 11 5 15 16 10
12 28 -5 21 -8 -3 -15 -1 -15 4 0 6 7 10 15 10 21 0 19 15 -3 17 -15 1 -18 -6
-18 -41z"/>
<path d="M4984 2203 c4 -12 2 -24 -4 -28 -16 -10 -12 -23 9 -35 14 -7 22 -7
27 2 4 6 3 8 -2 5 -14 -8 -38 9 -30 22 4 6 12 8 18 5 5 -4 4 4 -2 17 -17 33
-24 38 -16 12z"/>
<path d="M4944 2128 c-11 -17 -13 -79 -3 -73 4 3 6 12 3 19 -7 18 14 30 29 17
10 -7 13 -3 14 17 0 15 -1 19 -4 10 -4 -17 -33 -14 -33 4 0 5 5 6 10 3 6 -3
10 -1 10 4 0 15 -17 14 -26 -1z"/>
<path d="M4990 1971 c0 -6 4 -12 8 -15 5 -3 9 1 9 9 0 8 -4 15 -9 15 -4 0 -8
-4 -8 -9z"/>
<path d="M4933 1752 c2 -12 6 -24 10 -28 3 -4 4 4 2 16 -6 30 -16 40 -12 12z"/>
<path d="M4985 1670 c-3 -6 1 -7 9 -4 18 7 21 14 7 14 -6 0 -13 -4 -16 -10z"/>
<path d="M4934 1640 c0 -16 3 -27 6 -25 8 5 6 42 -1 50 -3 2 -5 -8 -5 -25z"/>
<path d="M4933 1569 c-2 -23 3 -25 10 -4 4 8 3 16 -1 19 -4 3 -9 -4 -9 -15z"/>
<path d="M4985 1510 c-3 -6 1 -7 9 -4 18 7 21 14 7 14 -6 0 -13 -4 -16 -10z"/>
<path d="M4981 1477 c-1 -15 -5 -16 -21 -7 -11 6 -20 9 -21 8 -6 -24 -5 -37 2
-32 5 3 9 0 9 -5 0 -6 -5 -11 -12 -11 -6 0 -3 -7 8 -15 16 -13 16 -14 2 -9
-10 3 -18 2 -18 -4 0 -9 20 -9 40 -2 3 1 9 2 13 1 5 -1 6 3 3 8 -4 5 1 17 10
25 8 9 10 16 4 16 -6 0 -13 -7 -16 -15 -4 -8 -10 -12 -16 -9 -5 3 -2 14 7 24
10 11 15 25 12 32 -4 8 -6 7 -6 -5z m-16 -25 c-3 -3 -11 0 -18 7 -9 10 -8 11
6 5 10 -3 15 -9 12 -12z"/>
<path d="M4965 1380 c-3 -5 -1 -10 4 -10 6 0 10 -5 9 -11 -2 -6 4 -14 12 -16
10 -3 11 -2 4 4 -6 4 -10 16 -8 26 2 18 -11 23 -21 7z"/>
<path d="M5013 1113 c0 -9 4 -10 14 -2 7 6 13 12 13 14 0 1 -6 2 -13 2 -8 0
-14 -6 -14 -14z"/>
<path d="M5006 1082 c-3 -5 1 -9 9 -9 8 0 12 4 9 9 -3 4 -7 8 -9 8 -2 0 -6 -4
-9 -8z"/>
<path d="M5005 1022 c-6 -4 -11 -31 -11 -59 0 -29 2 -51 5 -48 3 3 5 25 6 48
0 23 4 48 8 55 9 14 7 15 -8 4z"/>
<path d="M4902 938 c-7 -45 -6 -78 3 -78 6 0 10 16 9 35 0 19 4 35 9 35 4 0 5
5 2 10 -9 14 -21 13 -23 -2z"/>
<path d="M4956 787 c3 -10 9 -15 12 -12 3 3 0 11 -7 18 -10 9 -11 8 -5 -6z"/>
<path d="M270 739 c0 -5 5 -7 10 -4 6 3 10 8 10 11 0 2 -4 4 -10 4 -5 0 -10
-5 -10 -11z"/>
<path d="M290 710 c0 -5 5 -10 11 -10 5 0 7 5 4 10 -3 6 -8 10 -11 10 -2 0 -4
-4 -4 -10z"/>
<path d="M4920 711 c0 -6 4 -13 10 -16 6 -3 7 1 4 9 -7 18 -14 21 -14 7z"/>
<path d="M4915 660 c-3 -6 1 -7 9 -4 18 7 21 14 7 14 -6 0 -13 -4 -16 -10z"/>
<path d="M360 580 c-9 -6 -10 -10 -3 -10 6 0 15 5 18 10 8 12 4 12 -15 0z"/>
<path d="M371 560 c-9 -5 -4 -7 13 -7 29 0 32 2 13 10 -8 3 -20 2 -26 -3z"/>
<path d="M4836 547 c3 -10 9 -15 12 -12 3 3 0 11 -7 18 -10 9 -11 8 -5 -6z"/>
<path d="M413 516 c37 -40 46 -54 41 -60 -2 -3 -1 -4 3 -1 14 11 11 36 -8 48
-10 8 -16 17 -11 22 4 5 2 5 -5 1 -6 -3 -14 -2 -18 4 -3 5 -10 10 -15 10 -5 0
1 -11 13 -24z"/>
<path d="M4806 525 c-11 -8 -15 -15 -9 -15 6 0 16 7 23 15 16 19 11 19 -14 0z"/>
<path d="M396 507 c3 -10 9 -15 12 -12 3 3 0 11 -7 18 -10 9 -11 8 -5 -6z"/>
<path d="M4810 500 c-9 -6 -10 -10 -3 -10 6 0 15 5 18 10 8 12 4 12 -15 0z"/>
<path d="M473 447 c-3 -6 -1 -7 5 -3 7 4 12 1 12 -8 0 -8 4 -17 9 -20 5 -3 8
5 7 17 -1 24 -22 32 -33 14z"/>
<path d="M515 360 c3 -5 8 -10 11 -10 2 0 4 5 4 10 0 6 -5 10 -11 10 -5 0 -7
-4 -4 -10z"/>
<path d="M4510 360 c0 -5 5 -10 11 -10 5 0 7 5 4 10 -3 6 -8 10 -11 10 -2 0
-4 -4 -4 -10z"/>
<path d="M4633 345 c-10 -11 -9 -13 6 -12 11 1 17 7 14 14 -6 16 -5 16 -20 -2z"/>
<path d="M4440 315 c-7 -9 -10 -18 -7 -22 4 -3 2 -12 -4 -19 -13 -15 -42 -7
-32 9 4 7 -6 1 -22 -11 -20 -16 -30 -33 -31 -55 -1 -18 0 -26 3 -19 4 10 8 10
21 0 10 -8 13 -9 9 -1 -4 6 -2 13 4 15 9 3 9 10 0 27 -11 21 -11 22 10 19 12
-2 24 -10 26 -18 4 -13 3 -13 -6 0 -5 8 -12 12 -15 10 -2 -3 5 -16 16 -30 11
-14 19 -18 18 -10 -4 26 0 40 11 40 5 0 7 -5 3 -11 -5 -8 -1 -8 13 0 11 6 22
8 25 6 2 -2 4 7 4 20 0 14 -4 25 -8 25 -5 0 -8 -7 -6 -16 2 -10 -4 -19 -12
-22 -8 -3 -12 -1 -8 3 4 4 3 17 -3 28 -6 10 -7 17 -2 14 13 -8 53 11 53 25 0
8 -3 9 -8 3 -10 -14 -46 -19 -37 -6 9 16 -1 13 -15 -4z m10 -49 c0 -2 -7 -7
-16 -10 -8 -3 -12 -2 -9 4 6 10 25 14 25 6z m-76 -48 c-9 -14 -23 2 -17 18 4
12 8 13 14 3 4 -7 5 -17 3 -21z"/>
<path d="M4601 301 c-8 -5 -9 -11 -3 -15 5 -3 12 1 16 9 6 17 6 18 -13 6z"/>
<path d="M620 280 c8 -5 20 -10 25 -10 6 0 3 5 -5 10 -8 5 -19 10 -25 10 -5 0
-3 -5 5 -10z"/>
<path d="M694 279 c-4 -7 -2 -15 4 -17 7 -2 19 -10 26 -18 12 -11 14 -10 12
11 0 13 -3 21 -5 19 -2 -2 -10 1 -17 7 -9 7 -14 6 -20 -2z"/>
<path d="M4521 237 c-13 -21 -12 -21 5 -5 10 10 16 20 13 22 -3 3 -11 -5 -18
-17z"/>
<path d="M4391 192 c-8 -15 -6 -18 9 -17 11 1 23 5 27 9 5 4 1 6 -7 4 -8 -1
-14 3 -12 10 3 18 -6 15 -17 -6z"/>
<path d="M1196 177 c-17 -12 -15 -13 15 -11 46 3 46 3 29 14 -20 13 -23 12
-44 -3z"/>
<path d="M1600 180 c-16 -10 -13 -12 20 -12 33 0 36 2 20 12 -8 5 -17 10 -20
10 -3 0 -12 -5 -20 -10z"/>
<path d="M2160 180 c-17 -11 -17 -11 29 -14 30 -2 32 -1 15 11 -21 15 -24 16
-44 3z"/>
<path d="M2560 180 c-16 -10 -13 -12 20 -12 33 0 36 2 20 12 -8 5 -17 10 -20
10 -3 0 -12 -5 -20 -10z"/>
<path d="M3120 180 c-17 -11 -17 -11 29 -14 30 -2 32 -1 15 11 -21 15 -24 16
-44 3z"/>
<path d="M3520 180 c-16 -10 -13 -12 20 -12 33 0 36 2 20 12 -8 5 -17 10 -20
10 -3 0 -12 -5 -20 -10z"/>
<path d="M4114 166 c-8 -22 3 -33 18 -18 9 9 9 15 0 24 -9 9 -13 7 -18 -6z"/>
<path d="M4355 169 c-4 -6 -5 -12 -2 -15 2 -3 7 2 10 11 7 17 1 20 -8 4z"/>
<path d="M4300 159 c0 -5 5 -7 10 -4 6 3 10 8 10 11 0 2 -4 4 -10 4 -5 0 -10
-5 -10 -11z"/>
<path d="M4255 130 c-4 -6 -11 -8 -16 -5 -5 4 -9 1 -9 -4 0 -16 16 -13 30 4 7
8 10 15 7 15 -3 0 -9 -5 -12 -10z"/>
<path d="M975 120 c3 -5 8 -10 11 -10 2 0 4 5 4 10 0 6 -5 10 -11 10 -5 0 -7
-4 -4 -10z"/>
<path d="M4110 119 c0 -3 9 -9 19 -12 13 -3 18 0 15 7 -5 13 -34 18 -34 5z"/>
<path d="M1273 105 c0 -8 4 -15 9 -15 4 0 8 4 8 9 0 6 -4 12 -8 15 -5 3 -9 -1
-9 -9z"/>
<path d="M1430 110 c0 -5 7 -6 17 -3 12 5 14 3 8 -7 -5 -9 -4 -11 4 -6 6 4 9
12 6 17 -8 12 -35 12 -35 -1z"/>
<path d="M1570 111 c0 -6 4 -13 10 -16 6 -3 7 1 4 9 -7 18 -14 21 -14 7z"/>
<path d="M1630 110 c0 -5 5 -10 11 -10 5 0 7 5 4 10 -3 6 -8 10 -11 10 -2 0
-4 -4 -4 -10z"/>
<path d="M1910 110 c0 -5 7 -6 17 -3 12 5 14 3 8 -7 -5 -9 -4 -11 4 -6 6 4 9
12 6 17 -8 12 -35 12 -35 -1z"/>
<path d="M2050 111 c0 -6 4 -13 10 -16 6 -3 7 1 4 9 -7 18 -14 21 -14 7z"/>
<path d="M2390 110 c0 -5 7 -6 17 -3 12 5 14 3 8 -7 -5 -9 -4 -11 4 -6 6 4 9
12 6 17 -8 12 -35 12 -35 -1z"/>
<path d="M2530 111 c0 -6 4 -13 10 -16 6 -3 7 1 4 9 -7 18 -14 21 -14 7z"/>
<path d="M2590 110 c0 -5 5 -10 11 -10 5 0 7 5 4 10 -3 6 -8 10 -11 10 -2 0
-4 -4 -4 -10z"/>
<path d="M2870 110 c0 -5 7 -6 17 -3 12 5 14 3 8 -7 -5 -9 -4 -11 4 -6 6 4 9
12 6 17 -8 12 -35 12 -35 -1z"/>
<path d="M3010 111 c0 -6 4 -13 10 -16 6 -3 7 1 4 9 -7 18 -14 21 -14 7z"/>
<path d="M3350 110 c0 -5 7 -6 17 -3 12 5 14 3 8 -7 -5 -9 -4 -11 4 -6 6 4 9
12 6 17 -8 12 -35 12 -35 -1z"/>
<path d="M3490 111 c0 -6 4 -13 10 -16 6 -3 7 1 4 9 -7 18 -14 21 -14 7z"/>
<path d="M3550 110 c0 -5 5 -10 11 -10 5 0 7 5 4 10 -3 6 -8 10 -11 10 -2 0
-4 -4 -4 -10z"/>
<path d="M3830 110 c0 -5 7 -6 17 -3 12 5 14 3 8 -7 -5 -9 -4 -11 4 -6 6 4 9
12 6 17 -8 12 -35 12 -35 -1z"/>
<path d="M3970 111 c0 -6 4 -13 10 -16 6 -3 7 1 4 9 -7 18 -14 21 -14 7z"/>
<path d="M4033 105 c0 -8 4 -12 9 -9 5 3 6 10 3 15 -9 13 -12 11 -12 -6z"/>
<path d="M1236 98 c3 -5 10 -6 15 -3 13 9 11 12 -6 12 -8 0 -12 -4 -9 -9z"/>
<path d="M1706 98 c3 -4 9 -8 15 -8 5 0 9 4 9 8 0 5 -7 9 -15 9 -8 0 -12 -4
-9 -9z"/>
<path d="M2160 100 c-12 -7 -10 -9 7 -7 12 0 19 5 17 9 -6 10 -6 10 -24 -2z"/>
<path d="M2230 100 c0 -5 5 -10 10 -10 6 0 10 5 10 10 0 6 -4 10 -10 10 -5 0
-10 -4 -10 -10z"/>
<path d="M2666 98 c3 -4 9 -8 15 -8 5 0 9 4 9 8 0 5 -7 9 -15 9 -8 0 -12 -4
-9 -9z"/>
<path d="M3120 100 c-12 -7 -10 -9 7 -7 12 0 19 5 17 9 -6 10 -6 10 -24 -2z"/>
<path d="M3190 100 c0 -5 5 -10 10 -10 6 0 10 5 10 10 0 6 -4 10 -10 10 -5 0
-10 -4 -10 -10z"/>
<path d="M3626 98 c3 -4 9 -8 15 -8 5 0 9 4 9 8 0 5 -7 9 -15 9 -8 0 -12 -4
-9 -9z"/>
</g>
</svg>
